<mxfile host="Electron" modified="2023-07-16T15:31:35.728Z" agent="Mozilla/5.0 (Macintosh; Intel Mac OS X 10_15_7) AppleWebKit/537.36 (KHTML, like Gecko) draw.io/21.5.1 Chrome/112.0.5615.204 Electron/24.6.0 Safari/537.36" etag="2WSPaQ78G9UhNOETDyxn" version="21.5.1" type="device">
  <diagram name="Page-1" id="sfooioJBLwaYegBNhj1i">
    <mxGraphModel dx="1046" dy="780" grid="1" gridSize="10" guides="1" tooltips="1" connect="1" arrows="1" fold="1" page="1" pageScale="1" pageWidth="850" pageHeight="1100" math="0" shadow="0">
      <root>
        <mxCell id="0" />
        <mxCell id="1" parent="0" />
        <mxCell id="yVcAya_c9F0ZWP0AlDcd-1" value="&lt;font style=&quot;font-size: 18px;&quot;&gt;States&lt;/font&gt;" style="swimlane;whiteSpace=wrap;html=1;" vertex="1" parent="1">
          <mxGeometry y="150" width="210" height="250" as="geometry" />
        </mxCell>
        <mxCell id="yVcAya_c9F0ZWP0AlDcd-3" value="&lt;div&gt;&lt;span style=&quot;font-size: 18px;&quot;&gt;&amp;nbsp;Movies:&lt;/span&gt;&lt;/div&gt;&lt;ul&gt;&lt;li&gt;&lt;span style=&quot;background-color: initial;&quot;&gt;&lt;font style=&quot;font-size: 18px;&quot;&gt;movies&lt;/font&gt;&lt;/span&gt;&lt;/li&gt;&lt;li&gt;&lt;span style=&quot;background-color: initial;&quot;&gt;&lt;font style=&quot;font-size: 18px;&quot;&gt;selectedMovies&lt;/font&gt;&lt;/span&gt;&lt;/li&gt;&lt;li&gt;&lt;span style=&quot;background-color: initial;&quot;&gt;&lt;font style=&quot;font-size: 18px;&quot;&gt;similarMovies&lt;/font&gt;&lt;/span&gt;&lt;/li&gt;&lt;/ul&gt;" style="text;strokeColor=none;fillColor=none;html=1;whiteSpace=wrap;verticalAlign=middle;overflow=hidden;shadow=0;" vertex="1" parent="yVcAya_c9F0ZWP0AlDcd-1">
          <mxGeometry y="20" width="170" height="120" as="geometry" />
        </mxCell>
        <mxCell id="yVcAya_c9F0ZWP0AlDcd-4" value="&lt;div&gt;&lt;span style=&quot;font-size: 18px;&quot;&gt;&amp;nbsp;Users:&lt;/span&gt;&lt;/div&gt;&lt;ul&gt;&lt;li&gt;&lt;font style=&quot;font-size: 18px;&quot;&gt;user&lt;/font&gt;&lt;/li&gt;&lt;li&gt;&lt;font style=&quot;font-size: 18px;&quot;&gt;token&lt;/font&gt;&lt;/li&gt;&lt;/ul&gt;" style="text;strokeColor=none;fillColor=none;html=1;whiteSpace=wrap;verticalAlign=middle;overflow=hidden;" vertex="1" parent="yVcAya_c9F0ZWP0AlDcd-1">
          <mxGeometry y="150" width="90" height="80" as="geometry" />
        </mxCell>
        <mxCell id="yVcAya_c9F0ZWP0AlDcd-15" value="" style="endArrow=none;html=1;rounded=0;entryX=-0.022;entryY=0.119;entryDx=0;entryDy=0;entryPerimeter=0;" edge="1" parent="yVcAya_c9F0ZWP0AlDcd-1">
          <mxGeometry width="50" height="50" relative="1" as="geometry">
            <mxPoint x="210" y="140" as="sourcePoint" />
            <mxPoint x="-1.8207657603852567e-14" y="139.99999999999997" as="targetPoint" />
            <Array as="points">
              <mxPoint x="101.98" y="140" />
            </Array>
          </mxGeometry>
        </mxCell>
        <mxCell id="yVcAya_c9F0ZWP0AlDcd-6" value="&lt;font style=&quot;font-size: 18px;&quot;&gt;Actions&lt;/font&gt;" style="swimlane;whiteSpace=wrap;html=1;" vertex="1" parent="1">
          <mxGeometry x="280" y="150" width="570" height="400" as="geometry" />
        </mxCell>
        <mxCell id="yVcAya_c9F0ZWP0AlDcd-7" value="&lt;div&gt;&lt;span style=&quot;font-size: 18px;&quot;&gt;&amp;nbsp;Movies:&lt;/span&gt;&lt;/div&gt;&lt;ul&gt;&lt;li&gt;&lt;span style=&quot;background-color: initial;&quot;&gt;&lt;font style=&quot;font-size: 18px;&quot;&gt;fetchMovies (useEffect fetch API Movies)&lt;/font&gt;&lt;/span&gt;&lt;/li&gt;&lt;li&gt;&lt;span style=&quot;background-color: initial;&quot;&gt;&lt;font style=&quot;font-size: 18px;&quot;&gt;updateSelectedMovie (onClick(MovieCard))&lt;/font&gt;&lt;/span&gt;&lt;/li&gt;&lt;li&gt;&lt;span style=&quot;background-color: initial;&quot;&gt;&lt;font style=&quot;font-size: 18px;&quot;&gt;deleteSelectedMovie (onClick(BackButton))&lt;/font&gt;&lt;/span&gt;&lt;/li&gt;&lt;li&gt;&lt;span style=&quot;background-color: initial;&quot;&gt;&lt;font style=&quot;font-size: 18px;&quot;&gt;FetchSimilarMovies (useEffect + onClick(MpvieCard))&lt;/font&gt;&lt;/span&gt;&lt;/li&gt;&lt;/ul&gt;" style="text;strokeColor=none;fillColor=none;html=1;whiteSpace=wrap;verticalAlign=middle;overflow=hidden;" vertex="1" parent="yVcAya_c9F0ZWP0AlDcd-6">
          <mxGeometry y="10" width="480" height="170" as="geometry" />
        </mxCell>
        <mxCell id="yVcAya_c9F0ZWP0AlDcd-8" value="&lt;div&gt;&lt;span style=&quot;font-size: 18px;&quot;&gt;&amp;nbsp;Users:&lt;/span&gt;&lt;/div&gt;&lt;ul&gt;&lt;li&gt;&lt;font style=&quot;font-size: 18px;&quot;&gt;userLogin (useEffect fetch API Users get userName + password)&lt;/font&gt;&lt;/li&gt;&lt;li&gt;&lt;font style=&quot;font-size: 18px;&quot;&gt;userSignup (fetch API Users Post Json file)&lt;/font&gt;&lt;/li&gt;&lt;li&gt;&lt;font style=&quot;font-size: 18px;&quot;&gt;&lt;font style=&quot;&quot;&gt;userUpdate&amp;nbsp;&lt;/font&gt;(fetch API Users Patch Json file)&lt;/font&gt;&lt;/li&gt;&lt;li&gt;&lt;font style=&quot;font-size: 18px;&quot;&gt;userUpdateFavorites&lt;font style=&quot;border-color: var(--border-color);&quot;&gt;&amp;nbsp;&lt;/font&gt;(fetch API Users Patch Json file)&amp;nbsp;&lt;/font&gt;&lt;/li&gt;&lt;/ul&gt;" style="text;strokeColor=none;fillColor=none;html=1;whiteSpace=wrap;verticalAlign=middle;overflow=hidden;" vertex="1" parent="yVcAya_c9F0ZWP0AlDcd-6">
          <mxGeometry y="210" width="570" height="130" as="geometry" />
        </mxCell>
        <mxCell id="yVcAya_c9F0ZWP0AlDcd-17" value="" style="endArrow=none;html=1;rounded=0;entryX=-0.022;entryY=0.119;entryDx=0;entryDy=0;entryPerimeter=0;" edge="1" parent="yVcAya_c9F0ZWP0AlDcd-6">
          <mxGeometry width="50" height="50" relative="1" as="geometry">
            <mxPoint x="570" y="190" as="sourcePoint" />
            <mxPoint y="189.99999999999997" as="targetPoint" />
          </mxGeometry>
        </mxCell>
        <mxCell id="yVcAya_c9F0ZWP0AlDcd-12" value="" style="endArrow=classic;startArrow=classic;html=1;rounded=0;entryX=0;entryY=0.5;entryDx=0;entryDy=0;exitX=1;exitY=0.5;exitDx=0;exitDy=0;" edge="1" parent="1" source="yVcAya_c9F0ZWP0AlDcd-3" target="yVcAya_c9F0ZWP0AlDcd-7">
          <mxGeometry width="50" height="50" relative="1" as="geometry">
            <mxPoint x="230" y="100" as="sourcePoint" />
            <mxPoint x="470" y="240" as="targetPoint" />
          </mxGeometry>
        </mxCell>
        <mxCell id="yVcAya_c9F0ZWP0AlDcd-14" value="" style="endArrow=classic;startArrow=classic;html=1;rounded=0;exitX=1;exitY=0.5;exitDx=0;exitDy=0;entryX=0.002;entryY=0.558;entryDx=0;entryDy=0;entryPerimeter=0;" edge="1" parent="1" source="yVcAya_c9F0ZWP0AlDcd-4" target="yVcAya_c9F0ZWP0AlDcd-8">
          <mxGeometry width="50" height="50" relative="1" as="geometry">
            <mxPoint x="420" y="290" as="sourcePoint" />
            <mxPoint x="470" y="240" as="targetPoint" />
          </mxGeometry>
        </mxCell>
        <mxCell id="yVcAya_c9F0ZWP0AlDcd-18" value="Text" style="text;html=1;strokeColor=none;fillColor=none;align=center;verticalAlign=middle;whiteSpace=wrap;rounded=0;" vertex="1" parent="1">
          <mxGeometry x="420" y="250" width="60" height="30" as="geometry" />
        </mxCell>
        <mxCell id="yVcAya_c9F0ZWP0AlDcd-19" value="&lt;font style=&quot;font-size: 24px;&quot;&gt;TheFlix React - Redux Diagram&lt;/font&gt;" style="rounded=1;whiteSpace=wrap;html=1;align=center;" vertex="1" parent="1">
          <mxGeometry x="260" width="330" height="60" as="geometry" />
        </mxCell>
      </root>
    </mxGraphModel>
  </diagram>
</mxfile>
